<mxfile host="Electron" modified="2024-06-04T09:22:44.351Z" agent="Mozilla/5.0 (Windows NT 10.0; Win64; x64) AppleWebKit/537.36 (KHTML, like Gecko) draw.io/24.4.13 Chrome/124.0.6367.207 Electron/30.0.6 Safari/537.36" etag="2lIbhCzHc__9rsJOTxjV" version="24.4.13" type="device">
  <diagram name="Page-1" id="NPYN6fbSfSWTOY6Q6Fi0">
    <mxGraphModel dx="763" dy="519" grid="1" gridSize="10" guides="1" tooltips="1" connect="1" arrows="1" fold="1" page="1" pageScale="1" pageWidth="850" pageHeight="1100" math="0" shadow="0">
      <root>
        <mxCell id="0" />
        <mxCell id="1" parent="0" />
        <mxCell id="LseCo-QUiBqhD4fiEOGd-23" value="&lt;p style=&quot;margin:0px;margin-top:4px;text-align:center;&quot;&gt;&lt;b&gt;Kontext&lt;/b&gt;&lt;/p&gt;&lt;hr size=&quot;1&quot; style=&quot;border-style:solid;&quot;&gt;&lt;div style=&quot;height:2px;&quot;&gt;&lt;/div&gt;" style="verticalAlign=top;align=left;overflow=fill;html=1;whiteSpace=wrap;" parent="1" vertex="1">
          <mxGeometry x="20" y="70" width="500" height="290" as="geometry" />
        </mxCell>
        <mxCell id="LseCo-QUiBqhD4fiEOGd-1" value="Benutzer" style="shape=umlActor;verticalLabelPosition=bottom;verticalAlign=top;html=1;outlineConnect=0;" parent="1" vertex="1">
          <mxGeometry x="40" y="220" width="40" height="80" as="geometry" />
        </mxCell>
        <mxCell id="LseCo-QUiBqhD4fiEOGd-2" value="&lt;p&gt;Prooph-Board&lt;/p&gt;" style="verticalAlign=top;align=center;spacingTop=8;spacingLeft=2;spacingRight=12;shape=cube;size=10;direction=south;fontStyle=4;html=1;whiteSpace=wrap;" parent="1" vertex="1">
          <mxGeometry x="170" y="110" width="140" height="60" as="geometry" />
        </mxCell>
        <mxCell id="LseCo-QUiBqhD4fiEOGd-8" value="" style="endArrow=classic;html=1;rounded=0;entryX=0;entryY=0;entryDx=35;entryDy=140;dashed=1;entryPerimeter=0;" parent="1" source="LseCo-QUiBqhD4fiEOGd-1" target="DuRqAk3k8IcM5xtP67Ec-3" edge="1">
          <mxGeometry width="50" height="50" relative="1" as="geometry">
            <mxPoint x="120" y="250" as="sourcePoint" />
            <mxPoint x="161.25" y="257.5" as="targetPoint" />
          </mxGeometry>
        </mxCell>
        <mxCell id="LseCo-QUiBqhD4fiEOGd-9" value="interagiert" style="edgeLabel;html=1;align=center;verticalAlign=middle;resizable=0;points=[];" parent="LseCo-QUiBqhD4fiEOGd-8" vertex="1" connectable="0">
          <mxGeometry x="-0.15" y="1" relative="1" as="geometry">
            <mxPoint as="offset" />
          </mxGeometry>
        </mxCell>
        <mxCell id="LseCo-QUiBqhD4fiEOGd-10" value="" style="endArrow=classic;html=1;rounded=0;exitX=0;exitY=0;exitDx=0;exitDy=65;exitPerimeter=0;entryX=0;entryY=0;entryDx=60;entryDy=75;entryPerimeter=0;" parent="1" source="DuRqAk3k8IcM5xtP67Ec-3" target="LseCo-QUiBqhD4fiEOGd-2" edge="1">
          <mxGeometry width="50" height="50" relative="1" as="geometry">
            <mxPoint x="222.5" y="225" as="sourcePoint" />
            <mxPoint x="230" y="180" as="targetPoint" />
          </mxGeometry>
        </mxCell>
        <mxCell id="LseCo-QUiBqhD4fiEOGd-20" value="ist auf" style="edgeLabel;html=1;align=center;verticalAlign=middle;resizable=0;points=[];" parent="LseCo-QUiBqhD4fiEOGd-10" vertex="1" connectable="0">
          <mxGeometry x="-0.052" y="-1" relative="1" as="geometry">
            <mxPoint as="offset" />
          </mxGeometry>
        </mxCell>
        <mxCell id="LseCo-QUiBqhD4fiEOGd-12" value="" style="endArrow=classic;html=1;rounded=0;dashed=1;exitX=0.5;exitY=0;exitDx=0;exitDy=0;exitPerimeter=0;entryX=0;entryY=0;entryDx=35;entryDy=145;entryPerimeter=0;" parent="1" source="LseCo-QUiBqhD4fiEOGd-1" target="LseCo-QUiBqhD4fiEOGd-2" edge="1">
          <mxGeometry width="50" height="50" relative="1" as="geometry">
            <mxPoint x="50" y="170" as="sourcePoint" />
            <mxPoint x="130" y="150" as="targetPoint" />
            <Array as="points">
              <mxPoint x="60" y="145" />
            </Array>
          </mxGeometry>
        </mxCell>
        <mxCell id="LseCo-QUiBqhD4fiEOGd-13" value="interagiert" style="edgeLabel;html=1;align=center;verticalAlign=middle;resizable=0;points=[];" parent="LseCo-QUiBqhD4fiEOGd-12" vertex="1" connectable="0">
          <mxGeometry x="-0.15" y="1" relative="1" as="geometry">
            <mxPoint x="31" y="-2" as="offset" />
          </mxGeometry>
        </mxCell>
        <mxCell id="LseCo-QUiBqhD4fiEOGd-17" value="" style="endArrow=classic;html=1;rounded=0;entryX=0;entryY=0;entryDx=35;entryDy=140;exitX=0;exitY=0;exitDx=25;exitDy=0;entryPerimeter=0;exitPerimeter=0;" parent="1" source="DuRqAk3k8IcM5xtP67Ec-3" target="DuRqAk3k8IcM5xtP67Ec-4" edge="1">
          <mxGeometry width="50" height="50" relative="1" as="geometry">
            <mxPoint x="570" y="200" as="sourcePoint" />
            <mxPoint x="656.25" y="202.5" as="targetPoint" />
          </mxGeometry>
        </mxCell>
        <mxCell id="LseCo-QUiBqhD4fiEOGd-18" value="nutzt" style="edgeLabel;html=1;align=center;verticalAlign=middle;resizable=0;points=[];" parent="LseCo-QUiBqhD4fiEOGd-17" vertex="1" connectable="0">
          <mxGeometry x="-0.15" y="1" relative="1" as="geometry">
            <mxPoint as="offset" />
          </mxGeometry>
        </mxCell>
        <mxCell id="DuRqAk3k8IcM5xtP67Ec-3" value="&lt;p&gt;Chaty&lt;/p&gt;" style="verticalAlign=top;align=center;spacingTop=8;spacingLeft=2;spacingRight=12;shape=cube;size=10;direction=south;fontStyle=4;html=1;whiteSpace=wrap;" vertex="1" parent="1">
          <mxGeometry x="160" y="230" width="140" height="60" as="geometry" />
        </mxCell>
        <mxCell id="DuRqAk3k8IcM5xtP67Ec-4" value="&lt;p&gt;Ollama&lt;/p&gt;" style="verticalAlign=top;align=center;spacingTop=8;spacingLeft=2;spacingRight=12;shape=cube;size=10;direction=south;fontStyle=4;html=1;whiteSpace=wrap;" vertex="1" parent="1">
          <mxGeometry x="360" y="220" width="140" height="60" as="geometry" />
        </mxCell>
      </root>
    </mxGraphModel>
  </diagram>
</mxfile>
